<svg width="16" height="16" viewBox="0 0 160 150" fill="none" xmlns="http://www.w3.org/2000/svg">

  <!-- LEFT BRANCH -->
  <circle cx="58"  cy="36"  r="22" fill="#7DD3FC" opacity="0.55"/>
  <path d="M48 14 A22 22 0 1 1 26 36"
        stroke="#E0F2FE" stroke-width="12" stroke-linecap="round" fill="none"/>
  <line x1="48" y1="58" x2="48" y2="98"
        stroke="#E0F2FE" stroke-width="12" stroke-linecap="round"/>
  <circle cx="58" cy="118" r="22" fill="#7DD3FC" opacity="0.55"/>
  <path d="M48 96 A22 22 0 1 1 26 118"
        stroke="#E0F2FE" stroke-width="12" stroke-linecap="round" fill="none"/>

  <!-- RIGHT BRANCH -->
  <line x1="90" y1="36" x2="136" y2="36"
        stroke="#E0F2FE" stroke-width="12" stroke-linecap="round"/>
  <polyline points="106,18 88,36 106,54"
            stroke="#E0F2FE" stroke-width="12"
            stroke-linecap="round" stroke-linejoin="round" fill="none"/>
  <path d="M136 36 Q148 36 148 50 L148 100 Q148 114 136 114 L112 114"
        stroke="#E0F2FE" stroke-width="12" stroke-linecap="round" stroke-linejoin="round" fill="none"/>
  <circle cx="122" cy="118" r="22" fill="#7DD3FC" opacity="0.55"/>
  <path d="M112 96 A22 22 0 1 1 90 118"
        stroke="#E0F2FE" stroke-width="12" stroke-linecap="round" fill="none"/>

</svg>

